[img]http://img36.imageshack.us/img36/6746/fright.jpg[/img]
[code]
Fright Night 2011 720p TS XViD - IMAGiNE

Ripper ...........: IMAGiNE                                     IMDB Rating.......:7.0/10                             
Video Codec.......: XVID                                        Release Date......:22/08/11
Audio Codec.......:MP3                                          Theatre Date......:19/08/11
Audio Bitrate.....:128                                          Runtime.......:1h 38mn
Subtitles.........:NIL                                          Language..........:ENGLISH
Resolution...... 1280 x 544                                     IMDb URL.......... http://www.imdb.com/title/tt1438176/


DETAILS:

Video
ID                               : 0
Format                           : MPEG-4 Visual
Format profile                   : Advanced Simple@L5
Format settings, BVOP            : 2
Format settings, QPel            : No
Format settings, GMC             : No warppoints
Format settings, Matrix          : Default (MPEG)
Muxing mode                      : Packed bitstream
Codec ID                         : XVID
Codec ID/Hint                    : XviD
Duration                         : 1h 38mn
Bit rate                         : 3 247 Kbps
Width                            : 1 280 pixels
Height                           : 544 pixels
Display aspect ratio             : 2.35:1
Frame rate                       : 29.970 fps
Color space                      : YUV
Chroma subsampling               : 4:2:0
Bit depth                        : 8 bits
Scan type                        : Progressive
Compression mode                 : Lossy
Bits/(Pixel*Frame)               : 0.156
Stream size                      : 2.23 GiB (96%)
Writing library                  : XviD 64

Audio
ID                               : 1
Format                           : MPEG Audio
Format version                   : Version 1
Format profile                   : Layer 3
Mode                             : Joint stereo
Mode extension                   : MS Stereo
Codec ID                         : 55
Codec ID/Hint                    : MP3
Duration                         : 1h 38mn
Bit rate mode                    : Constant
Bit rate                         : 128 Kbps
Channel(s)                       : 2 channels
Sampling rate                    : 44.1 KHz
Compression mode                 : Lossy
Delay relative to video          : 15ms
Stream size                      : 89.9 MiB (4%)
Alignment                        : Split accross interleaves
Interleave, duration             : 33 ms (1.00 video frame)

Plot:
A teenager suspects that his new neighbor is a vampire.

SOURCES:
VIDEO: ....... Thanks Mate 
AUDIO: ....... Thanks Matey 

NOTES:
IMAGiNE bringing you another release..........
Fright Night 720p TS...........
Heres another amazing TS for ya 
Video was very nice, so we made a script to crop resize and sharpen.......
made some adjustments to this and that Audio is nice LiNE we filtered synced and muxed to our encode.
Enjoy 
[/code]
Screens:
[img]http://img535.imageshack.us/img535/4305/46727241.png[/img]
[img]http://img844.imageshack.us/img844/9127/23743994.png[/img]
[img]http://img804.imageshack.us/img804/1343/38067285.png[/img]
[img]http://img31.imageshack.us/img31/5969/33853703.png[/img]
[img]http://img847.imageshack.us/img847/1448/13740206.png[/img]